<?xml version="1.0" standalone="no"?>
<!DOCTYPE svg PUBLIC "-//W3C//DTD SVG 20010904//EN"
 "http://www.w3.org/TR/2001/REC-SVG-20010904/DTD/svg10.dtd">
<svg version="1.0" xmlns="http://www.w3.org/2000/svg"
 width="2944.000000pt" height="1664.000000pt" viewBox="0 0 2944.000000 1664.000000"
 preserveAspectRatio="xMidYMid meet">

<g transform="translate(0.000000,1664.000000) scale(0.100000,-0.100000)"
fill="#000000" stroke="none">
<path d="M12878 13603 c6 -2 18 -2 25 0 6 3 1 5 -13 5 -14 0 -19 -2 -12 -5z"/>
<path d="M12706 13563 c-59 -19 -106 -36 -105 -38 5 -4 241 63 248 70 12 13
-44 0 -143 -32z"/>
<path d="M12510 13499 c-30 -12 -75 -27 -100 -34 -104 -31 -217 -77 -395 -160
-60 -29 -121 -56 -135 -60 -14 -4 -50 -24 -80 -44 -30 -21 -102 -64 -160 -96
-58 -32 -116 -68 -130 -80 -14 -13 -45 -35 -70 -51 -25 -16 -98 -75 -163 -131
-65 -57 -137 -113 -160 -124 -53 -27 -344 -318 -425 -424 -33 -44 -79 -100
-102 -125 -38 -42 -170 -250 -170 -269 0 -4 -9 -16 -20 -26 -11 -10 -20 -22
-20 -28 0 -5 -20 -37 -43 -71 -39 -53 -79 -127 -163 -296 -12 -25 -37 -79 -54
-120 -18 -41 -40 -93 -50 -115 -10 -22 -21 -51 -24 -65 -4 -14 -13 -41 -21
-60 -43 -109 -85 -233 -85 -251 0 -11 -7 -34 -17 -52 -9 -18 -20 -45 -24 -62
-4 -16 -19 -68 -32 -115 -27 -96 -39 -148 -61 -270 -39 -217 -49 -304 -61
-516 -3 -60 -10 -137 -14 -170 -10 -71 -1 -101 36 -115 16 -6 92 -10 178 -9
83 1 260 -2 395 -6 135 -5 305 -8 379 -7 l133 2 93 75 c50 42 111 97 133 123
23 27 56 62 73 79 l31 31 -84 12 c-50 7 -299 14 -633 19 l-550 7 0 150 c0 138
10 346 19 405 3 14 10 66 16 115 28 213 82 462 120 550 4 11 32 85 62 165 119
323 315 676 527 945 136 173 401 444 434 445 10 0 80 -39 155 -86 75 -48 193
-119 262 -159 139 -82 168 -100 290 -186 98 -69 141 -98 189 -125 19 -10 57
-34 85 -52 28 -18 57 -30 64 -27 7 3 10 1 7 -5 -3 -5 4 -14 16 -20 16 -9 24
-8 39 5 13 11 20 13 25 5 4 -6 4 -14 1 -17 -3 -4 -6 -1 -6 7 0 10 -3 10 -15 0
-19 -16 -9 -33 16 -27 11 3 17 1 14 -3 -3 -5 13 -19 35 -32 22 -13 40 -29 40
-37 0 -7 -39 -52 -87 -100 -49 -48 -109 -111 -134 -141 -48 -57 -209 -268
-209 -275 0 -2 26 21 58 51 80 76 234 179 398 265 122 65 183 95 337 170 22
11 43 19 48 19 5 0 28 8 52 19 35 16 123 44 341 112 16 5 44 9 63 9 19 0 67 9
106 19 130 35 231 45 602 60 417 16 882 -44 1320 -170 239 -69 283 -85 473
-168 50 -23 95 -41 98 -41 12 0 230 -113 314 -163 170 -101 382 -247 465 -320
33 -29 83 -68 110 -87 96 -65 425 -414 487 -517 10 -15 36 -53 59 -83 22 -30
53 -73 67 -95 15 -22 74 -103 132 -181 58 -77 114 -156 125 -175 11 -19 34
-59 52 -89 28 -49 103 -121 136 -133 9 -3 9 -8 -2 -20 -12 -16 -1 -17 155 -18
245 -2 286 -5 296 -24 7 -11 14 -13 27 -5 10 5 42 7 72 3 58 -7 87 -29 116
-90 8 -19 18 -32 20 -29 8 7 -134 270 -216 401 -114 183 -272 402 -413 572
-161 194 -446 494 -570 600 -21 18 -38 37 -38 42 0 13 78 76 210 168 122 86
230 145 295 162 64 17 594 131 663 143 48 9 60 14 47 21 -9 5 -31 6 -50 3 -46
-9 -82 8 -106 48 -11 19 -29 38 -40 41 -10 4 -52 46 -94 94 -41 49 -91 99
-112 111 l-38 22 50 -52 50 -51 -55 -49 c-30 -27 -58 -50 -61 -50 -5 0 -86
-58 -304 -219 -44 -32 -162 -113 -262 -180 -209 -141 -186 -138 -298 -39 -135
118 -429 326 -594 418 -36 21 -146 83 -245 138 -277 156 -573 267 -1026 386
-289 75 -749 126 -1010 111 -462 -25 -733 -73 -1110 -196 -198 -65 -305 -116
-458 -217 -67 -45 -125 -82 -128 -82 -9 0 32 37 79 73 20 15 37 34 37 42 0 8
7 11 18 8 10 -2 24 3 31 11 8 9 19 16 26 16 12 0 52 38 44 43 -2 1 -15 8 -29
16 -24 14 -25 13 -7 -6 16 -19 16 -20 -8 -33 -14 -7 -26 -18 -26 -24 -1 -6 -4
3 -8 19 -8 38 -46 45 -49 9 -2 -21 7 -29 31 -25 4 0 7 -4 7 -10 0 -7 -7 -8
-17 -4 -35 14 -71 16 -79 4 -4 -7 -3 -9 4 -5 6 3 13 2 16 -3 4 -5 -2 -8 -11
-6 -10 2 -22 4 -27 4 -5 1 -3 8 4 16 7 8 10 21 7 29 -3 7 0 19 6 25 9 9 8 14
-3 21 -11 7 -19 5 -27 -7 -10 -13 -10 -18 0 -25 8 -5 9 -8 0 -8 -24 0 -43 13
-43 30 0 10 -12 25 -26 35 -15 9 -23 12 -20 6 4 -6 2 -11 -3 -11 -6 0 -11 3
-11 8 0 4 -16 7 -35 8 -19 0 -35 -4 -35 -10 0 -6 -4 -4 -9 4 -13 19 -4 31 16
23 12 -5 15 -2 10 9 -3 9 -3 19 1 22 13 13 10 36 -5 36 -13 0 -13 -2 -2 -17
12 -15 12 -16 -3 -10 -10 3 -20 1 -24 -5 -4 -7 -3 -8 4 -4 7 4 12 2 12 -4 0
-7 -5 -10 -12 -8 -14 5 -20 38 -7 38 5 0 9 5 9 11 0 5 -4 7 -10 4 -13 -8 -13
8 0 21 7 7 2 21 -15 44 -25 34 -27 48 -3 34 19 -12 39 -14 32 -3 -3 5 -9 7
-14 4 -4 -3 -10 0 -12 6 -2 6 -17 12 -33 12 -18 0 -35 7 -43 18 -7 11 -21 19
-30 19 -13 0 -14 2 -3 9 10 7 10 10 1 16 -14 9 -32 -14 -23 -29 3 -5 1 -6 -6
-2 -6 4 -9 12 -5 17 3 5 0 16 -6 24 -17 20 2 20 40 0 27 -14 29 -14 23 2 -4
10 -2 14 4 10 5 -3 10 -1 10 6 0 7 4 20 8 30 4 10 3 17 -5 17 -6 0 -8 -4 -5
-10 3 -5 1 -10 -4 -10 -6 0 -11 -7 -11 -15 0 -9 -9 -15 -22 -15 -21 0 -21 0
-2 16 10 8 13 13 6 9 -20 -10 -43 15 -36 38 4 11 2 17 -4 13 -5 -3 -18 4 -28
15 -16 18 -16 19 -1 13 9 -3 17 -11 17 -17 0 -7 4 -7 12 1 10 10 10 15 -2 23
-13 9 -12 10 3 5 20 -6 20 -5 7 28 -12 32 -27 34 -32 4 -2 -12 -10 -24 -18
-26 -13 -4 -13 -3 -2 11 10 12 11 21 2 36 -6 12 -15 21 -21 21 -6 0 -8 -4 -5
-8 2 -4 1 -14 -4 -22 -7 -12 -9 -10 -8 5 0 11 -3 29 -7 40 -4 11 -3 16 2 10
19 -24 48 -33 61 -19 18 19 15 22 -14 16 -17 -3 -25 -1 -21 6 7 11 -27 9 -73
-3 -14 -3 -7 3 15 14 22 10 35 20 28 20 -6 1 -10 9 -8 19 1 9 0 12 -2 5 -2 -7
-11 -9 -19 -6 -8 3 -17 -4 -23 -18 -5 -13 -10 -19 -11 -14 -7 51 -20 73 -20
34 0 -19 -2 -21 -10 -9 -8 13 -10 12 -10 -2 0 -24 -23 -22 -46 4 l-19 21 26
-17 c25 -16 27 -16 32 3 3 12 -1 22 -10 25 -8 3 -11 1 -8 -4 3 -6 2 -10 -3
-10 -6 0 -13 7 -16 16 -5 13 -10 13 -35 -5 -26 -19 -29 -19 -26 -4 1 10 8 17
15 15 6 -1 9 2 5 8 -3 6 -12 7 -18 3 -20 -13 -57 -14 -57 -3 0 6 -6 10 -12 9
-25 -3 -35 1 -35 16 0 20 30 46 55 48 11 0 18 5 16 9 -3 4 -1 8 5 8 5 0 12 8
14 18 2 9 3 5 2 -10 -1 -16 1 -26 3 -23 3 3 11 0 19 -6 8 -8 13 -8 13 -1 0 6
-5 12 -12 14 -8 3 -6 12 6 29 11 13 16 17 13 7 -4 -10 -2 -20 3 -23 6 -4 11
-1 11 4 1 6 3 16 4 21 1 6 3 18 5 28 1 12 6 9 16 -13 13 -25 14 -26 9 -5 -4
14 -7 30 -7 37 -1 8 -7 9 -19 2 -14 -7 -17 -6 -13 5 3 8 1 17 -4 20 -6 3 -12
-1 -16 -9 -3 -9 -12 -12 -22 -8 -14 5 -16 2 -12 -15 4 -15 2 -19 -8 -15 -8 3
-11 10 -7 17 3 6 2 7 -3 3 -5 -5 -9 -12 -9 -15 -1 -17 -17 -32 -28 -26 -7 4
-9 4 -5 -1 4 -4 2 -15 -5 -24 -11 -14 -10 -14 6 -2 19 15 24 2 5 -17 -7 -7
-17 -8 -29 -2 -11 6 -20 6 -23 1 -3 -5 -16 -7 -29 -4 -12 3 -19 3 -15 -2 6 -6
-14 -35 -24 -35 -2 0 -4 14 -4 31 -1 21 2 29 11 25 7 -2 16 2 19 10 3 9 10 12
16 9 12 -7 96 41 93 52 -2 5 9 12 25 17 15 5 31 15 35 23 5 7 12 11 18 8 5 -4
9 -1 9 5 0 6 3 9 8 7 12 -7 45 30 33 38 -6 3 -11 1 -11 -4 0 -6 -7 -11 -16
-11 -27 0 -141 -59 -148 -76 -3 -8 -10 -12 -16 -9 -5 3 -10 1 -10 -5 0 -7 -7
-10 -15 -6 -8 3 -15 2 -15 -3 0 -5 -9 -11 -20 -14 -29 -8 -24 12 6 23 14 6 40
21 57 34 32 23 59 36 86 42 8 1 17 8 21 14 9 15 16 19 225 123 223 112 314
153 405 184 41 14 82 29 90 34 28 16 -11 9 -70 -12z m-883 -474 c-23 -22 -33
-18 -12 5 10 11 20 18 23 16 2 -3 -3 -12 -11 -21z m-37 -29 c0 -2 -9 -6 -20
-9 -11 -3 -18 -1 -14 4 5 9 34 13 34 5z m165 -32 c-23 -17 -34 -2 -14 22 9 11
15 12 23 4 8 -8 6 -15 -9 -26z m-120 -4 c3 -5 1 -10 -4 -10 -6 0 -11 5 -11 10
0 6 2 10 4 10 3 0 8 -4 11 -10z m205 -65 c-6 -8 -9 -24 -6 -37 l6 -23 -11 22
c-9 17 -9 26 1 38 7 8 15 15 17 15 3 0 0 -7 -7 -15z m214 -33 c3 -5 -1 -9 -9
-9 -8 0 -15 4 -15 9 0 4 4 8 9 8 6 0 12 -4 15 -8z m-175 -36 c-3 -3 -11 5 -18
17 -13 21 -12 21 5 5 10 -10 16 -20 13 -22z m69 15 c11 -7 11 -9 -1 -14 -16
-6 -27 0 -27 15 0 10 11 10 28 -1z m35 -6 c-3 -9 -8 -14 -10 -11 -3 3 -2 9 2
15 9 16 15 13 8 -4z m-58 -45 c-3 -5 -12 -10 -18 -10 -7 0 -6 4 3 10 19 12 23
12 15 0z m-49 -7 c-10 -11 -37 -12 -30 -2 3 5 12 9 21 9 9 0 13 -3 9 -7z m24
-89 c0 -8 -19 -13 -24 -6 -3 5 1 9 9 9 8 0 15 -2 15 -3z m85 -84 c3 -6 -1 -7
-9 -4 -18 7 -21 14 -7 14 6 0 13 -4 16 -10z m175 -64 c0 -3 -4 -8 -10 -11 -5
-3 -10 -1 -10 4 0 6 5 11 10 11 6 0 10 -2 10 -4z m61 -15 c-8 -5 -10 -14 -6
-22 6 -11 5 -11 -5 -2 -14 12 -6 33 13 33 8 0 7 -3 -2 -9z m54 -21 c-4 -6 5
-24 19 -41 27 -32 27 -53 0 -42 -13 5 -13 7 -2 14 7 5 9 9 3 9 -21 0 -40 70
-19 70 3 0 2 -5 -1 -10z m-29 -18 c-3 -3 1 -10 10 -16 14 -10 14 -15 0 -41
-10 -19 -16 -24 -16 -13 0 9 5 20 10 23 15 9 12 25 -4 25 -8 0 -14 9 -13 19 0
11 5 17 10 14 4 -3 6 -7 3 -11z m-41 -82 c17 14 27 -1 14 -20 -5 -10 -9 -11
-9 -3 0 7 -7 10 -15 7 -10 -4 -15 0 -14 12 0 12 3 14 6 6 4 -9 8 -10 18 -2z
m80 0 c3 -5 1 -10 -4 -10 -6 0 -11 5 -11 10 0 6 2 10 4 10 3 0 8 -4 11 -10z
m-111 -26 c3 -8 2 -12 -4 -9 -6 3 -10 10 -10 16 0 14 7 11 14 -7z m86 -9 c14
-19 14 -19 -2 -6 -10 7 -18 18 -18 24 0 6 1 8 3 6 1 -2 9 -13 17 -24z m127
-81 c0 -6 -9 -9 -19 -6 -10 2 -18 7 -18 11 0 4 8 7 18 7 10 0 19 -5 19 -12z
m-53 -20 c3 -8 2 -12 -4 -9 -6 3 -10 10 -10 16 0 14 7 11 14 -7z m90 1 c3 -8
2 -14 -2 -14 -4 1 -9 0 -12 -1 -20 -8 -47 -4 -47 6 0 9 5 10 19 3 17 -9 22 -5
19 14 -2 13 17 7 23 -8z m24 -25 c-7 -10 -14 -18 -15 -16 -6 6 9 36 18 36 5 0
4 -9 -3 -20z m192 -15 c0 -8 -2 -15 -4 -15 -2 0 -6 7 -10 15 -3 8 -1 15 4 15
6 0 10 -7 10 -15z m-110 -16 c0 -4 -7 -10 -16 -13 -8 -3 -12 -10 -9 -16 3 -6
-1 -7 -9 -4 -21 8 -20 24 2 25 14 0 14 2 -3 9 -17 8 -16 8 8 7 15 -1 27 -4 27
-8z m70 -33 c0 -2 -8 -10 -17 -17 -16 -13 -17 -12 -4 4 13 16 21 21 21 13z
m-95 -26 c-3 -5 -12 -10 -18 -10 -7 0 -6 4 3 10 19 12 23 12 15 0z m-111 -66
c3 -8 2 -12 -4 -9 -6 3 -10 10 -10 16 0 14 7 11 14 -7z m-69 -12 c-3 -3 -11 0
-18 7 -9 10 -8 11 6 5 10 -3 15 -9 12 -12z"/>
<path d="M11981 13138 c1 -18 2 -19 6 -5 2 9 9 15 14 12 5 -4 9 -1 9 4 0 6 -7
11 -15 11 -9 0 -15 -9 -14 -22z"/>
<path d="M11950 13125 c0 -8 2 -15 4 -15 2 0 6 7 10 15 3 8 1 15 -4 15 -6 0
-10 -7 -10 -15z"/>
<path d="M11790 12965 c-10 -13 -9 -15 9 -15 11 0 21 -4 21 -9 0 -11 26 -9 37
3 4 4 4 7 -2 6 -22 -5 -35 1 -35 15 0 8 -4 15 -9 15 -5 0 -14 -7 -21 -15z"/>
<path d="M11830 12970 c0 -5 5 -10 11 -10 5 0 7 5 4 10 -3 6 -8 10 -11 10 -2
0 -4 -4 -4 -10z"/>
<path d="M11905 12971 c3 -5 -1 -11 -7 -14 -7 -2 -11 -7 -8 -10 3 -3 13 0 23
8 16 11 16 13 2 19 -9 3 -14 2 -10 -3z"/>
<path d="M12040 12952 c0 -5 7 -9 15 -9 8 0 12 4 9 9 -3 4 -9 8 -15 8 -5 0 -9
-4 -9 -8z"/>
<path d="M12230 12800 c-9 -6 -10 -10 -3 -10 6 0 15 5 18 10 8 12 4 12 -15 0z"/>
<path d="M12191 12784 c0 -11 3 -14 6 -6 3 7 2 16 -1 19 -3 4 -6 -2 -5 -13z"/>
<path d="M12230 12745 c-7 -8 -16 -12 -21 -10 -4 3 -13 -5 -19 -17 -10 -21
-10 -21 3 -6 8 10 16 15 19 13 3 -3 13 4 23 15 10 11 16 20 13 20 -3 0 -11 -7
-18 -15z"/>
<path d="M12260 12720 c-8 -5 -12 -12 -9 -15 4 -3 12 1 19 10 14 17 11 19 -10
5z"/>
<path d="M12222 12713 c-6 -2 -10 -9 -6 -14 8 -14 21 -11 21 6 0 8 -1 15 -1
14 -1 0 -7 -3 -14 -6z"/>
<path d="M12709 12668 c-5 -14 -4 -60 2 -63 4 -3 7 11 7 30 0 29 -4 44 -9 33z"/>
<path d="M12256 12619 c3 -5 12 -9 21 -9 19 0 9 13 -12 16 -8 1 -13 -2 -9 -7z"/>
<path d="M12280 12592 c0 -5 7 -9 15 -9 8 0 12 4 9 9 -3 4 -9 8 -15 8 -5 0 -9
-4 -9 -8z"/>
<path d="M12325 12590 c3 -5 8 -10 11 -10 2 0 4 5 4 10 0 6 -5 10 -11 10 -5 0
-7 -4 -4 -10z"/>
<path d="M12702 12571 c7 -9 13 -18 15 -20 1 -2 1 5 0 16 0 11 -7 20 -14 20
-10 0 -10 -4 -1 -16z"/>
<path d="M12265 12560 c3 -5 8 -10 11 -10 2 0 4 5 4 10 0 6 -5 10 -11 10 -5 0
-7 -4 -4 -10z"/>
<path d="M12341 12534 c-1 -12 6 -24 14 -28 8 -3 15 -12 15 -20 0 -10 -6 -13
-17 -9 -15 6 -16 5 -3 -9 8 -9 16 -12 18 -8 2 5 11 6 20 3 10 -3 13 -2 6 4
-14 11 -25 41 -16 46 4 2 1 2 -6 1 -7 -2 -17 6 -22 19 -9 22 -9 22 -9 1z"/>
<path d="M12386 12541 c-19 -7 -19 -8 0 -13 13 -3 21 0 21 8 0 8 -1 14 -1 13
-1 0 -10 -4 -20 -8z"/>
<path d="M12706 12490 c1 -28 4 -53 7 -57 4 -3 2 -13 -3 -23 -6 -11 -5 -17 3
-17 9 0 12 23 13 74 0 46 -4 73 -10 73 -7 0 -11 -20 -10 -50z"/>
<path d="M12436 12447 c3 -10 9 -15 12 -12 3 3 0 11 -7 18 -10 9 -11 8 -5 -6z"/>
<path d="M12352 12425 c-11 -13 -10 -15 7 -15 14 0 19 5 15 15 -7 18 -6 18
-22 0z"/>
<path d="M12537 12341 c-4 -17 -3 -21 5 -13 5 5 8 16 6 23 -3 8 -7 3 -11 -10z"/>
<path d="M12436 12325 c10 -8 23 -15 28 -15 6 0 1 7 -10 15 -10 8 -23 15 -28
15 -6 0 -1 -7 10 -15z"/>
<path d="M12485 12279 c-4 -6 -5 -12 -2 -15 2 -3 7 2 10 11 7 17 1 20 -8 4z"/>
<path d="M17835 12230 c10 -11 20 -20 23 -20 3 0 -3 9 -13 20 -10 11 -20 20
-23 20 -3 0 3 -9 13 -20z"/>
<path d="M17915 12160 c10 -11 20 -20 23 -20 3 0 -3 9 -13 20 -10 11 -20 20
-23 20 -3 0 3 -9 13 -20z"/>
<path d="M19535 12041 c-6 -5 -19 -12 -30 -15 -11 -3 0 -3 24 0 57 6 89 23 46
24 -17 0 -35 -4 -40 -9z"/>
<path d="M19295 11998 c-64 -13 -79 -17 -73 -23 7 -7 132 15 143 26 11 11 0
10 -70 -3z"/>
<path d="M14399 11297 c-19 -12 -57 -40 -83 -62 -26 -22 -80 -67 -119 -101
-40 -33 -116 -89 -170 -123 -53 -35 -101 -69 -105 -76 -9 -16 -88 -78 -177
-138 -111 -75 -227 -159 -282 -203 -28 -22 -81 -60 -117 -84 -36 -24 -66 -47
-66 -51 0 -4 -16 -17 -35 -29 -20 -12 -98 -72 -175 -134 -77 -61 -151 -119
-166 -129 -14 -11 -23 -21 -21 -24 7 -6 -14 -22 1026 752 207 154 417 309 466
344 114 81 114 81 85 81 -14 0 -41 -11 -61 -23z"/>
<path d="M19396 11275 c-3 -9 -6 -22 -5 -28 0 -7 5 -1 10 12 5 13 8 26 5 28
-2 2 -6 -3 -10 -12z"/>
<path d="M14610 11267 c0 -1 33 -32 73 -67 l72 -63 -55 57 c-47 50 -90 84 -90
73z"/>
<path d="M19352 11123 c-13 -43 -34 -115 -48 -161 -14 -46 -23 -89 -21 -95 2
-6 25 62 51 151 26 89 46 167 44 173 -2 6 -14 -24 -26 -68z"/>
<path d="M15010 10886 c0 -2 8 -10 18 -17 15 -13 16 -12 3 4 -13 16 -21 21
-21 13z"/>
<path d="M19266 10833 c-6 -14 -5 -15 5 -6 7 7 10 15 7 18 -3 3 -9 -2 -12 -12z"/>
<path d="M15095 10804 c65 -66 257 -247 249 -234 -5 9 -52 56 -104 105 -96 90
-182 167 -145 129z"/>
<path d="M19226 10698 c-3 -7 -11 -35 -20 -62 -19 -58 -20 -79 -4 -51 13 22
39 125 32 125 -3 0 -6 -6 -8 -12z"/>
<path d="M19132 10411 c-36 -109 -41 -136 -14 -76 25 55 54 153 50 165 -2 6
-18 -34 -36 -89z"/>
<path d="M15572 10341 c7 -10 40 -42 73 -71 l60 -54 -70 72 c-71 73 -86 86
-63 53z"/>
<path d="M8010 10326 c-73 -10 -189 -50 -178 -61 2 -2 29 5 61 15 90 30 170
42 317 50 l135 7 -125 0 c-69 1 -163 -5 -210 -11z"/>
<path d="M8360 10330 c8 -5 26 -9 40 -9 23 0 23 1 5 9 -11 5 -29 9 -40 9 -17
1 -17 -1 -5 -9z"/>
<path d="M8490 10310 c14 -4 34 -8 45 -8 l20 -1 -20 9 c-11 5 -31 8 -45 8
l-25 0 25 -8z"/>
<path d="M8585 10290 c11 -5 27 -9 35 -9 13 -1 13 0 0 9 -8 5 -24 9 -35 9
l-20 0 20 -9z"/>
<path d="M7775 10250 c-3 -5 -13 -10 -22 -10 -9 0 -36 -15 -62 -33 -25 -18
-62 -42 -82 -54 -44 -25 -63 -40 -157 -127 -62 -56 -91 -94 -159 -207 -46 -76
-83 -145 -83 -154 0 -9 -7 -18 -15 -21 -8 -3 -24 -22 -36 -42 -12 -21 -30 -46
-39 -57 -36 -42 -64 -191 -62 -335 0 -61 28 -253 48 -338 27 -114 42 -147 106
-238 24 -34 63 -90 87 -125 67 -96 207 -232 277 -268 32 -17 70 -37 84 -46 33
-19 158 -75 169 -75 5 0 54 -19 108 -41 54 -23 109 -46 123 -52 14 -5 34 -13
45 -18 11 -4 65 -22 120 -40 55 -17 134 -45 175 -60 41 -16 84 -29 94 -29 32
0 138 -41 181 -70 22 -14 57 -33 77 -41 51 -20 136 -102 159 -154 32 -71 65
-105 98 -99 18 4 32 0 40 -10 11 -13 8 -23 -20 -61 -49 -69 -28 -65 26 5 63
82 85 142 85 234 0 61 -5 82 -31 135 -43 86 -116 161 -207 215 -69 40 -218 96
-567 212 -237 78 -471 177 -595 250 -45 27 -116 80 -157 118 -223 207 -332
433 -351 722 -9 140 0 254 28 344 19 62 97 203 150 271 41 52 134 137 191 176
30 20 65 44 79 53 15 10 49 29 78 44 29 14 52 29 52 31 0 9 -29 5 -35 -5z
m1225 -2329 c5 -11 10 -26 10 -34 0 -17 -44 -39 -64 -31 -8 3 -17 1 -21 -5 -9
-15 -55 -14 -55 2 1 19 26 47 42 47 8 0 25 9 38 20 29 25 37 25 50 1z"/>
<path d="M19003 10035 c-18 -49 -46 -133 -62 -185 -17 -52 -43 -113 -57 -135
l-27 -40 30 28 c16 15 34 27 41 27 23 0 62 24 62 38 0 8 -6 12 -14 9 -22 -9
-24 23 -4 62 10 20 15 44 11 58 -3 14 -1 34 5 46 23 49 53 149 50 165 -2 9
-18 -23 -35 -73z"/>
<path d="M12772 10065 c-56 -41 -71 -55 -58 -55 3 0 11 6 18 13 7 7 34 28 61
45 41 29 55 42 44 42 -2 0 -31 -20 -65 -45z"/>
<path d="M9219 9945 c75 -83 87 -95 63 -60 -11 17 -42 50 -68 75 l-48 45 53
-60z"/>
<path d="M12573 9922 c-24 -15 -43 -30 -43 -35 0 -10 27 5 65 37 38 32 31 31
-22 -2z"/>
<path d="M17518 9828 c-72 -74 -89 -116 -81 -203 3 -38 9 -74 13 -80 4 -5 10
-37 13 -70 4 -33 15 -94 26 -135 10 -41 22 -102 26 -135 4 -32 22 -104 39
-160 18 -55 38 -122 44 -150 40 -191 59 -266 73 -303 5 -13 9 -37 9 -55 0 -18
8 -54 17 -82 9 -27 20 -81 24 -120 18 -156 41 -285 60 -335 5 -14 11 -45 13
-70 2 -25 13 -72 25 -105 28 -79 48 -140 61 -195 6 -25 26 -81 44 -125 18 -44
39 -98 46 -119 7 -22 32 -72 56 -110 24 -39 56 -95 71 -125 47 -94 362 -397
458 -439 11 -5 64 -30 117 -56 172 -84 384 -118 525 -85 85 20 128 32 137 41
6 4 16 8 23 8 32 0 240 111 266 143 21 24 161 125 184 131 32 10 103 96 79 96
-2 0 -21 -14 -42 -31 -193 -154 -597 -197 -872 -93 -166 62 -317 153 -447 268
-268 238 -423 507 -534 928 -28 104 -156 676 -202 897 -19 96 -80 358 -145
628 -18 78 -43 166 -54 195 -29 76 -27 86 18 91 l37 4 -38 1 c-34 2 -44 -4
-89 -50z"/>
<path d="M12445 9833 c-64 -39 -174 -123 -240 -182 -22 -20 -65 -49 -95 -63
-35 -18 -61 -39 -73 -59 -33 -59 -26 -60 304 -65 162 -2 371 -5 464 -7 94 -2
348 0 565 5 217 4 422 8 455 8 550 -4 930 -12 1014 -20 128 -12 226 -13 267
-1 17 5 37 5 45 1 16 -9 217 -18 598 -27 244 -5 297 1 324 36 7 9 27 27 46 40
27 19 38 22 52 13 12 -8 26 -8 51 0 54 17 62 23 82 59 20 34 20 34 0 17 -16
-14 -27 -16 -50 -9 -70 20 -470 30 -1879 46 -242 3 -496 7 -565 10 -69 3 -361
7 -650 10 -727 8 -886 13 -882 27 3 12 16 23 150 126 103 79 110 93 17 35z"/>
<path d="M21975 9856 c-17 -7 -36 -20 -44 -30 -7 -9 -48 -37 -90 -63 -42 -25
-110 -67 -151 -94 -41 -26 -89 -50 -106 -54 -17 -3 -44 -20 -60 -36 -16 -17
-42 -38 -59 -46 -16 -9 -53 -33 -81 -55 -28 -21 -55 -38 -60 -38 -17 0 -146
-137 -136 -144 12 -7 71 12 93 30 8 8 30 14 48 14 19 0 34 6 37 15 4 8 14 15
25 15 10 0 30 16 45 36 15 19 40 42 56 50 16 8 58 40 94 70 36 30 93 69 127
85 34 16 79 40 99 52 l37 22 25 -24 c14 -14 26 -28 26 -33 0 -5 9 -28 20 -50
11 -23 20 -50 20 -59 0 -10 5 -21 10 -24 6 -3 10 -17 10 -29 0 -28 72 -315 99
-396 10 -30 24 -75 31 -100 8 -25 16 -49 19 -55 19 -36 51 -146 51 -178 0 -40
18 -107 51 -192 11 -29 19 -75 19 -109 0 -59 17 -136 30 -136 4 0 10 -35 13
-77 3 -43 12 -94 20 -113 8 -19 20 -71 26 -115 6 -44 15 -98 20 -120 5 -22 18
-87 30 -145 21 -110 54 -257 72 -325 6 -22 12 -67 15 -100 3 -33 9 -69 14 -80
49 -114 67 -286 34 -320 -19 -19 -58 -13 -87 13 -17 15 -17 15 -11 -4 4 -10
27 -46 51 -78 41 -58 43 -62 43 -133 0 -61 -4 -77 -21 -94 -11 -11 -19 -22
-17 -23 16 -14 558 -24 888 -16 150 3 305 -6 329 -19 16 -9 41 -11 75 -7 53 6
84 24 208 124 65 52 132 97 246 163 28 17 52 35 52 40 0 5 -320 10 -762 11
l-763 3 -8 65 c-5 36 -24 135 -42 220 -19 85 -50 241 -70 345 -35 179 -155
719 -190 850 -9 33 -59 231 -111 439 -128 508 -227 852 -275 953 -21 45 -39
87 -39 94 0 7 12 9 38 5 26 -4 31 -3 17 4 -28 12 -45 11 -80 -4z"/>
<path d="M19120 9843 c0 -10 -5 -25 -10 -33 -8 -13 -13 -10 -32 13 -20 25 -25
26 -42 14 -24 -17 -14 -72 16 -88 16 -8 19 -17 14 -40 -3 -16 -1 -52 4 -81 5
-29 14 -93 21 -143 6 -49 15 -97 19 -105 4 -8 10 -49 13 -90 3 -41 11 -88 17
-105 7 -16 16 -55 20 -85 14 -94 39 -217 50 -245 5 -14 10 -39 10 -55 0 -16 8
-48 18 -72 11 -24 21 -68 25 -98 3 -30 15 -95 27 -145 12 -49 23 -103 25 -120
3 -38 14 -85 25 -110 11 -24 28 -106 41 -200 5 -38 17 -83 25 -100 8 -16 20
-66 25 -110 5 -44 14 -110 19 -148 6 -37 10 -82 10 -100 0 -46 -48 -101 -108
-123 -60 -22 -76 -36 -32 -28 98 18 189 81 233 162 77 141 72 299 -22 712 -22
97 -58 268 -81 380 -37 183 -58 279 -120 555 -33 146 -89 359 -114 435 -38
117 -96 208 -96 153z"/>
<path d="M8147 9670 c-99 -31 -177 -95 -224 -183 -29 -53 -30 -82 -3 -47 11
14 20 30 20 36 0 18 68 90 118 128 42 31 58 36 125 41 57 4 84 2 105 -9 18 -9
43 -13 70 -9 35 5 48 1 88 -26 26 -17 53 -31 60 -31 19 0 34 -53 21 -76 -5
-10 -11 -20 -12 -22 -2 -2 -19 0 -39 3 -26 5 -41 16 -55 41 -11 19 -27 34 -36
34 -8 0 -15 4 -15 9 0 12 -39 21 -46 10 -3 -5 -9 -7 -14 -4 -5 3 -18 1 -30 -5
-72 -37 -70 -36 -70 -14 0 21 -49 15 -64 -9 -14 -23 -4 -29 76 -46 35 -7 86
-24 115 -38 64 -31 194 -140 229 -192 28 -43 73 -164 74 -197 0 -36 20 -45 84
-34 41 7 85 5 154 -5 145 -21 263 -28 323 -20 45 6 60 15 106 58 29 27 53 54
53 60 0 5 34 45 75 88 41 43 75 82 75 86 0 5 -78 8 -172 8 -95 -1 -245 2 -333
5 l-159 5 -24 64 c-69 178 -297 312 -533 310 -53 0 -105 -7 -142 -19z"/>
<path d="M18810 9633 c-31 -31 -127 -100 -200 -144 -26 -16 -28 -16 -58 8 -18
13 -32 32 -32 41 0 13 -4 11 -18 -8 -9 -14 -36 -43 -58 -66 -37 -37 -84 -118
-84 -144 0 -30 88 7 150 63 26 23 63 52 81 65 72 49 143 104 191 147 28 25 54
45 58 45 4 0 10 7 14 15 9 23 -6 16 -44 -22z"/>
<path d="M7892 9390 c0 -14 2 -19 5 -12 2 6 2 18 0 25 -3 6 -5 1 -5 -13z"/>
<path d="M11241 9376 c2 -2 29 -6 59 -9 36 -4 48 -3 35 3 -19 8 -103 14 -94 6z"/>
<path d="M11520 9316 c0 -2 7 -7 16 -10 8 -3 12 -2 9 4 -6 10 -25 14 -25 6z"/>
<path d="M9806 9248 l-47 -63 5 -205 c4 -113 11 -227 17 -255 29 -140 51 -323
49 -414 0 -25 6 -65 14 -90 8 -25 14 -61 15 -79 0 -22 8 -42 25 -59 l26 -25
10 26 c5 15 10 31 10 36 0 10 40 40 52 40 16 0 68 -84 68 -109 0 -14 7 -39 16
-56 9 -16 20 -48 25 -70 24 -109 -7 148 -71 595 -11 74 -27 194 -35 265 -24
203 -64 416 -85 461 -11 22 -20 46 -20 52 0 28 -30 8 -74 -50z"/>
<path d="M15940 9291 c-16 -31 -12 -42 10 -24 21 18 27 43 10 43 -5 0 -14 -9
-20 -19z"/>
<path d="M10694 9258 l-19 -21 28 18 c28 18 33 25 19 25 -5 0 -17 -10 -28 -22z"/>
<path d="M18321 9265 c0 -11 4 -38 8 -60 l9 -40 0 40 c0 22 -3 49 -8 60 l-9
20 0 -20z"/>
<path d="M19901 9260 c0 -8 4 -24 9 -35 l9 -20 0 20 c0 11 -4 27 -9 35 -9 13
-10 13 -9 0z"/>
<path d="M10520 9238 c0 -10 32 -68 40 -73 10 -6 100 54 100 66 0 5 -16 1 -35
-7 -45 -18 -64 -18 -87 3 -10 9 -18 14 -18 11z"/>
<path d="M11710 9236 c0 -3 9 -10 20 -16 11 -6 20 -8 20 -6 0 3 -9 10 -20 16
-11 6 -20 8 -20 6z"/>
<path d="M21055 9231 c-22 -9 10 -15 140 -26 107 -10 242 -34 289 -52 103 -41
240 -155 337 -283 29 -38 55 -68 57 -65 7 7 -40 68 -133 168 -126 137 -276
226 -382 227 -23 0 -45 5 -48 10 -3 6 -28 10 -55 10 -27 0 -52 5 -55 10 -7 12
-121 12 -150 1z"/>
<path d="M14750 9220 c-11 -7 -3 -10 30 -9 34 0 40 2 25 9 -27 12 -37 12 -55
0z"/>
<path d="M15265 9220 c-4 -6 11 -10 36 -10 48 0 49 4 2 13 -18 4 -35 2 -38 -3z"/>
<path d="M20245 9211 c-3 -12 -12 -21 -19 -21 -29 0 -117 -32 -122 -44 -3 -7
9 -43 25 -80 17 -37 31 -79 31 -95 0 -15 11 -49 24 -76 14 -27 28 -73 32 -104
3 -31 11 -65 17 -76 6 -11 10 -32 9 -47 -1 -15 2 -29 8 -33 5 -3 10 -15 10
-26 0 -24 25 -35 44 -20 8 7 17 30 21 52 6 35 4 43 -20 65 -19 18 -25 31 -21
47 3 12 -1 28 -8 37 -9 10 -15 48 -17 110 -2 52 -7 104 -13 115 -11 22 -9 55
5 70 5 5 9 20 9 33 l0 23 31 -22 31 -22 -7 23 c-4 13 -20 43 -35 67 -25 39
-29 42 -35 24z"/>
<path d="M14177 9199 c-24 -18 -33 -20 -67 -11 -52 13 -51 2 3 -23 23 -11 66
-42 96 -70 53 -49 54 -50 47 -20 -3 17 -11 56 -18 88 -6 31 -16 57 -22 57 -6
0 -24 -10 -39 -21z"/>
<path d="M15368 9213 c7 -3 16 -2 19 1 4 3 -2 6 -13 5 -11 0 -14 -3 -6 -6z"/>
<path d="M15560 9210 c0 -5 21 -10 48 -10 34 0 43 3 32 10 -20 13 -80 13 -80
0z"/>
<path d="M15174 9176 c-63 -63 -76 -89 -68 -132 7 -37 8 -38 16 -14 4 14 22
33 38 42 17 9 30 25 30 35 0 16 2 15 21 -4 24 -23 61 -180 58 -248 0 -22 6
-62 15 -90 9 -29 13 -64 10 -83 -4 -22 -2 -38 9 -50 8 -9 17 -24 20 -32 14
-37 5 28 -28 216 -29 163 -78 382 -88 390 -1 1 -16 -13 -33 -30z"/>
<path d="M15875 9168 c3 -15 8 -41 11 -58 6 -34 37 -41 53 -12 5 10 21 24 35
32 27 14 36 36 11 26 -8 -3 -19 3 -25 13 -6 12 -24 20 -50 23 -40 3 -40 3 -35
-24z"/>
<path d="M19921 9174 c0 -11 3 -14 6 -6 3 7 2 16 -1 19 -3 4 -6 -2 -5 -13z"/>
<path d="M7960 9146 c0 -2 8 -10 18 -17 15 -13 16 -12 3 4 -13 16 -21 21 -21
13z"/>
<path d="M13010 9082 c-68 -40 -78 -49 -171 -152 -79 -87 -132 -170 -108 -170
5 0 9 5 9 10 0 16 76 117 134 178 27 29 80 76 118 103 37 28 68 53 68 55 0 6
-1 5 -50 -24z"/>
<path d="M19950 9075 c0 -8 5 -15 10 -15 6 0 10 7 10 15 0 8 -4 15 -10 15 -5
0 -10 -7 -10 -15z"/>
<path d="M11989 8995 c6 -11 20 -31 31 -45 15 -17 18 -19 11 -5 -6 11 -20 31
-31 45 -15 17 -18 19 -11 5z"/>
<path d="M20351 8954 c0 -11 3 -14 6 -6 3 7 2 16 -1 19 -3 4 -6 -2 -5 -13z"/>
<path d="M18391 8884 c0 -11 3 -14 6 -6 3 7 2 16 -1 19 -3 4 -6 -2 -5 -13z"/>
<path d="M14896 8815 c3 -33 8 -78 11 -100 l7 -40 7 55 c4 30 4 59 -1 65 -4 5
-13 26 -19 45 -9 31 -10 28 -5 -25z"/>
<path d="M8655 8830 c3 -5 13 -10 21 -10 8 0 12 5 9 10 -3 6 -13 10 -21 10 -8
0 -12 -4 -9 -10z"/>
<path d="M18402 8830 c0 -8 4 -26 8 -40 6 -20 8 -21 8 -5 0 11 -3 29 -8 40 -5
12 -8 14 -8 5z"/>
<path d="M20370 8835 c0 -5 5 -17 10 -25 5 -8 10 -10 10 -5 0 6 -5 17 -10 25
-5 8 -10 11 -10 5z"/>
<path d="M15151 8784 c0 -11 3 -14 6 -6 3 7 2 16 -1 19 -3 4 -6 -2 -5 -13z"/>
<path d="M11070 8763 c-49 -4 -149 -32 -190 -53 -42 -21 -116 -94 -137 -134
-11 -21 -11 -26 -1 -20 26 17 79 32 96 27 10 -2 45 0 78 6 69 11 212 -12 274
-44 52 -26 160 -119 176 -150 8 -15 23 -44 33 -64 35 -66 73 -175 82 -236 6
-33 14 -85 20 -115 5 -30 14 -102 19 -160 5 -58 14 -127 20 -155 12 -53 26
-191 34 -317 3 -43 7 -82 11 -88 3 -5 12 -69 20 -143 8 -73 18 -153 24 -177
13 -57 41 -312 41 -367 0 -52 13 -89 37 -102 10 -5 97 -13 193 -16 208 -9 267
2 359 64 84 58 218 208 200 225 -2 3 -134 9 -294 16 -159 6 -290 12 -292 14
-4 4 -20 119 -63 461 -22 171 -51 391 -65 490 -13 99 -30 218 -36 265 -16 125
-57 359 -70 405 -31 111 -109 211 -222 287 -78 52 -240 89 -347 81z m-97 -87
c3 -8 3 -16 0 -19 -9 -10 -33 5 -33 19 0 18 26 18 33 0z m-36 -52 c-3 -3 -12
-4 -19 -1 -8 3 -5 6 6 6 11 1 17 -2 13 -5z"/>
<path d="M13686 8720 c-83 -13 -177 -60 -239 -119 -50 -47 -108 -131 -90 -131
21 0 108 67 105 82 -2 16 51 68 70 68 19 0 78 -41 78 -55 0 -7 22 -21 50 -30
27 -9 52 -21 55 -26 4 -5 20 -9 36 -9 77 0 178 -40 306 -122 45 -29 75 -58
109 -109 26 -38 58 -76 71 -84 13 -9 23 -24 23 -34 0 -10 7 -24 15 -31 8 -7
15 -23 15 -36 0 -12 5 -26 10 -29 6 -3 10 -24 10 -46 0 -70 29 -98 64 -63 15
14 16 14 16 0 0 -9 -7 -16 -15 -16 -8 0 -15 -3 -16 -7 -4 -36 -7 -55 -19 -103
-19 -84 -28 -97 -122 -182 -48 -43 -85 -78 -82 -78 3 0 25 13 48 29 96 66 189
183 218 273 49 156 -1 503 -93 642 -50 75 -202 166 -336 200 -76 20 -213 27
-287 16z m164 -82 c27 -19 41 -48 24 -48 -6 0 -66 16 -103 27 -11 3 -6 10 15
23 16 10 30 19 32 19 2 1 16 -9 32 -21z m-105 2 c3 -5 2 -10 -4 -10 -5 0 -13
5 -16 10 -3 6 -2 10 4 10 5 0 13 -4 16 -10z m-65 -45 c0 -9 -9 -15 -21 -15
-18 0 -19 2 -9 15 7 8 16 15 21 15 5 0 9 -7 9 -15z m280 -31 c0 -13 -6 -15
-27 -9 -46 11 -51 25 -10 25 27 0 37 -4 37 -16z"/>
<path d="M15201 8704 c0 -11 3 -14 6 -6 3 7 2 16 -1 19 -3 4 -6 -2 -5 -13z"/>
<path d="M16245 8696 c-120 -45 -192 -110 -245 -221 -30 -64 -47 -130 -30
-120 6 3 10 13 10 22 0 36 59 112 88 113 6 0 12 5 12 10 0 6 6 10 13 10 17 1
63 50 71 78 5 13 27 32 56 47 56 29 69 30 94 12 24 -17 14 -52 -17 -61 -20 -6
-19 -8 13 -22 19 -8 46 -14 60 -13 97 9 243 -63 377 -186 57 -52 153 -185 153
-213 0 -10 9 -28 20 -42 11 -14 20 -30 20 -36 0 -6 7 -26 16 -43 20 -40 29
-213 13 -245 -11 -20 -59 -88 -121 -168 -41 -54 -21 -47 48 16 106 96 151 214
141 371 -18 269 -173 535 -375 643 -135 72 -303 91 -417 48z m166 -59 c-1 -12
-15 -9 -19 4 -3 6 1 10 8 8 6 -3 11 -8 11 -12z"/>
<path d="M18431 8694 c0 -11 3 -14 6 -6 3 7 2 16 -1 19 -3 4 -6 -2 -5 -13z"/>
<path d="M21935 8690 c13 -41 64 -156 65 -143 0 19 -41 125 -57 148 -14 19
-15 19 -8 -5z"/>
<path d="M20411 8664 c0 -11 3 -14 6 -6 3 7 2 16 -1 19 -3 4 -6 -2 -5 -13z"/>
<path d="M12646 8629 c-26 -38 -77 -150 -96 -209 -32 -99 -39 -130 -34 -143 3
-8 -2 -29 -10 -46 -16 -30 -22 -92 -9 -104 3 -4 14 11 25 34 l18 41 29 -24
c32 -25 39 -44 51 -128 4 -30 16 -91 25 -135 17 -76 17 -82 1 -107 -25 -38
-53 -42 -64 -9 -5 15 -23 40 -39 57 -16 16 -32 36 -35 44 -21 61 -31 -109 -11
-185 6 -22 18 -75 27 -118 18 -90 67 -242 99 -307 12 -25 38 -65 58 -90 20
-25 46 -63 57 -85 31 -60 257 -275 289 -275 6 0 18 -9 28 -20 10 -11 23 -20
30 -20 7 0 38 -17 71 -38 32 -20 73 -43 89 -51 17 -7 38 -17 47 -22 10 -5 28
-9 41 -9 13 0 27 -4 32 -8 30 -26 229 -63 365 -68 109 -5 183 3 315 34 139 32
302 140 349 231 11 20 24 31 39 31 12 0 43 15 69 33 43 28 48 36 48 69 0 20 5
40 10 43 6 4 10 -8 10 -30 0 -39 -71 -152 -163 -258 -46 -54 -48 -59 -31 -71
49 -37 369 -57 411 -26 11 8 54 39 96 67 42 29 95 76 119 105 24 29 63 72 87
95 l44 43 -265 0 -265 0 -7 63 c-13 124 -30 216 -38 211 -4 -3 -26 -36 -49
-75 -76 -132 -201 -232 -339 -274 -83 -25 -301 -31 -424 -11 -283 47 -576 209
-766 424 -159 180 -250 354 -309 589 -55 220 -60 530 -10 697 11 37 18 70 16
72 -2 3 -16 -14 -31 -37z"/>
<path d="M20975 8604 c4 -27 13 -72 20 -100 7 -28 23 -104 36 -170 12 -65 24
-113 26 -106 3 9 36 12 119 12 69 0 114 4 114 10 0 9 -15 11 -150 14 -49 1
-55 3 -58 24 -4 29 14 52 41 52 16 0 18 3 9 12 -18 18 -15 28 11 37 22 9 22 9
-6 16 -17 4 -33 3 -42 -5 -27 -22 -50 -2 -69 59 -10 32 -16 74 -14 92 3 31 6
34 38 35 19 1 56 3 81 4 46 2 106 -18 102 -36 -1 -5 -4 -16 -8 -26 -5 -13 0
-16 28 -15 24 1 33 5 30 14 -3 8 3 13 16 13 14 0 21 -6 21 -20 0 -13 7 -20 20
-20 11 0 20 -4 20 -10 0 -13 27 -13 32 1 6 19 38 -3 55 -38 20 -43 21 -114 2
-150 -8 -14 -32 -35 -54 -45 l-40 -19 35 7 c44 8 58 19 76 62 43 105 -12 244
-124 310 -45 26 -53 27 -211 31 l-164 3 8 -48z"/>
<path d="M15166 8632 c-3 -6 1 -29 10 -53 12 -36 13 -51 3 -81 -9 -29 -9 -43
1 -68 7 -18 13 -47 12 -66 -1 -19 3 -34 7 -34 5 0 14 -12 19 -27 8 -22 9 -15
5 32 -3 33 -6 83 -8 110 -9 117 -18 175 -30 185 -8 7 -16 7 -19 2z"/>
<path d="M18446 8615 c8 -37 14 -45 14 -19 0 10 -5 26 -10 34 -8 11 -9 7 -4
-15z"/>
<path d="M22921 8584 c0 -11 3 -14 6 -6 3 7 2 16 -1 19 -3 4 -6 -2 -5 -13z"/>
<path d="M15331 8550 c0 -19 6 -48 14 -65 16 -33 15 -25 -4 60 l-9 40 -1 -35z"/>
<path d="M20301 8567 c-20 -25 -16 -85 13 -179 9 -32 14 -62 11 -68 -4 -6 -2
-16 3 -23 5 -7 15 -45 21 -86 7 -41 14 -77 16 -82 11 -17 47 -215 75 -409 6
-41 17 -89 25 -107 8 -17 15 -56 15 -86 0 -31 5 -68 11 -84 6 -15 17 -73 24
-128 8 -55 19 -127 25 -160 6 -33 15 -85 19 -115 5 -30 18 -109 29 -175 11
-66 25 -160 32 -209 6 -50 14 -94 16 -98 16 -25 70 -38 166 -40 98 -3 105 -2
146 25 27 17 59 54 89 100 50 78 102 145 173 221 27 30 38 46 26 42 -18 -6
-313 -25 -398 -26 -45 0 -42 -9 -99 290 -69 371 -169 859 -205 1005 -19 76
-34 148 -34 160 -1 18 -2 18 -11 3 -7 -12 -5 -36 6 -80 16 -59 16 -85 0 -135
-5 -17 -3 -23 8 -23 14 0 27 -28 27 -63 0 -10 -10 -21 -22 -26 -20 -7 -26 -2
-51 43 -15 28 -27 60 -26 71 1 11 -1 27 -4 35 -3 8 -8 38 -10 67 -3 32 -13 62
-26 79 -11 15 -21 34 -21 43 0 10 -8 26 -17 37 -13 13 -18 37 -19 79 -3 106
-4 115 -13 115 -5 0 -14 -6 -20 -13z m199 -597 c0 -5 -4 -10 -10 -10 -5 0 -10
5 -10 10 0 6 5 10 10 10 6 0 10 -4 10 -10z"/>
<path d="M18467 8505 c7 -49 13 -58 13 -19 0 16 -5 36 -10 44 -6 10 -7 2 -3
-25z"/>
<path d="M22011 8464 c0 -11 3 -14 6 -6 3 7 2 16 -1 19 -3 4 -6 -2 -5 -13z"/>
<path d="M18481 8430 c0 -8 4 -24 9 -35 5 -13 9 -14 9 -5 0 8 -4 24 -9 35 -5
13 -9 14 -9 5z"/>
<path d="M21365 8430 c-3 -6 1 -13 10 -16 19 -8 30 0 20 15 -8 14 -22 14 -30
1z"/>
<path d="M21207 8385 c3 -9 -2 -22 -13 -31 -17 -13 -15 -14 30 -12 29 2 51 8
54 16 2 7 -5 12 -16 12 -11 0 -25 7 -32 15 -16 20 -31 19 -23 0z"/>
<path d="M21333 8380 c-29 -24 -29 -30 2 -30 14 0 28 7 32 16 10 26 -10 34
-34 14z"/>
<path d="M22021 8350 c0 -30 4 -62 9 -70 12 -19 12 76 0 105 -6 14 -9 5 -9
-35z"/>
<path d="M15360 8344 c0 -16 4 -43 9 -59 4 -17 5 -54 1 -83 -5 -40 -2 -62 12
-93 10 -23 18 -59 18 -80 0 -22 7 -56 16 -77 8 -20 20 -89 25 -152 6 -63 17
-130 25 -148 7 -18 14 -47 14 -65 0 -18 10 -57 21 -87 17 -43 22 -79 23 -168
1 -109 0 -114 -24 -132 -30 -23 -42 -21 -55 8 -9 21 -28 27 -25 8 1 -4 -7 -15
-17 -23 -17 -14 -17 -14 1 -9 14 5 17 3 11 -11 -4 -10 -10 -29 -12 -43 -5 -30
24 -244 57 -420 7 -36 14 -120 15 -186 2 -77 10 -154 23 -210 11 -49 25 -156
32 -239 15 -199 35 -292 70 -325 30 -28 111 -50 184 -50 27 0 77 -5 111 -12
95 -17 176 4 230 58 22 23 59 55 82 71 67 48 94 86 95 135 0 24 5 54 10 67 l9
24 -103 -7 c-132 -9 -460 -8 -469 2 -7 8 -35 181 -73 452 -58 407 -155 1022
-212 1330 -8 47 -19 108 -23 135 -39 249 -66 402 -73 410 -4 5 -8 -4 -8 -21z"/>
<path d="M20111 8334 c0 -11 3 -14 6 -6 3 7 2 16 -1 19 -3 4 -6 -2 -5 -13z"/>
<path d="M12266 8255 c8 -50 14 -58 14 -19 0 16 -5 36 -11 44 -7 11 -8 4 -3
-25z"/>
<path d="M15961 8224 c0 -11 3 -14 6 -6 3 7 2 16 -1 19 -3 4 -6 -2 -5 -13z"/>
<path d="M17581 8230 c1 -8 5 -26 9 -40 l8 -25 1 25 c0 14 -4 32 -9 40 -9 13
-10 13 -9 0z"/>
<path d="M21061 8200 c-1 -8 10 -55 23 -105 14 -49 36 -157 51 -239 14 -83 27
-151 29 -153 2 -2 9 9 15 25 7 17 25 33 44 40 30 12 34 11 54 -15 12 -15 25
-41 29 -58 7 -33 40 -81 92 -135 41 -44 93 -131 136 -230 5 -14 18 -36 27 -50
37 -58 27 -99 -25 -103 -22 -1 -33 4 -42 21 -13 27 -54 72 -65 72 -4 0 -10
-11 -13 -24 -3 -13 -15 -26 -26 -29 -19 -5 -29 -37 -12 -37 10 0 37 -55 46
-95 4 -17 22 -55 41 -85 19 -30 48 -81 64 -114 17 -32 34 -63 40 -70 5 -6 18
-28 30 -48 55 -99 65 -115 83 -141 33 -46 53 -51 208 -52 80 -1 179 -3 220 -5
103 -5 150 -2 150 9 0 6 -30 9 -67 8 -44 -1 -68 2 -68 10 0 6 41 55 91 109 50
55 105 116 123 137 l33 37 -256 0 c-254 0 -256 0 -276 23 -11 12 -82 123 -159
247 -184 297 -223 359 -372 584 -142 214 -168 262 -215 391 -18 50 -33 83 -33
75z m480 -1051 c27 -14 14 -29 -26 -29 -41 0 -55 17 -23 29 30 13 26 13 49 0z"/>
<path d="M22007 8161 c-4 -17 -3 -21 5 -13 5 5 8 16 6 23 -3 8 -7 3 -11 -10z"/>
<path d="M21987 8101 c-4 -17 -3 -21 5 -13 5 5 8 16 6 23 -3 8 -7 3 -11 -10z"/>
<path d="M15269 8074 c0 -10 -2 -39 -5 -64 -3 -25 -4 -52 -4 -60 1 -8 3 -33 4
-55 4 -63 32 -214 49 -260 6 -16 10 -44 8 -63 -1 -18 5 -44 14 -58 9 -13 13
-29 10 -34 -9 -14 4 -50 17 -50 6 0 8 13 6 30 -3 17 -2 33 1 34 8 6 5 233 -3
281 -4 22 -21 67 -37 100 -18 37 -33 89 -38 133 -9 71 -20 106 -22 66z"/>
<path d="M21937 8019 c-24 -32 -30 -46 -18 -39 20 10 67 78 59 85 -2 2 -20
-18 -41 -46z"/>
<path d="M9898 8028 c-2 -7 -1 -26 3 -43 6 -28 7 -26 8 13 1 42 -3 53 -11 30z"/>
<path d="M16011 8010 c0 -8 4 -22 9 -30 12 -18 12 -2 0 25 -6 13 -9 15 -9 5z"/>
<path d="M20172 7990 c0 -19 2 -27 5 -17 2 9 2 25 0 35 -3 9 -5 1 -5 -18z"/>
<path d="M9711 7974 c0 -11 3 -14 6 -6 3 7 2 16 -1 19 -3 4 -6 -2 -5 -13z"/>
<path d="M17622 7900 c0 -61 1 -63 10 -28 7 25 6 47 0 65 -9 24 -10 18 -10
-37z"/>
<path d="M16046 7917 c3 -10 9 -15 12 -12 3 3 0 11 -7 18 -10 9 -11 8 -5 -6z"/>
<path d="M9731 7884 c0 -11 3 -14 6 -6 3 7 2 16 -1 19 -3 4 -6 -2 -5 -13z"/>
<path d="M16080 7855 c11 -22 30 -51 41 -65 20 -24 20 -23 -1 15 -11 22 -30
51 -41 65 -20 24 -20 23 1 -15z"/>
<path d="M10102 7855 c0 -16 2 -22 5 -12 2 9 2 23 0 30 -3 6 -5 -1 -5 -18z"/>
<path d="M20184 7732 c-1 -82 2 -136 6 -122 10 32 12 241 2 257 -4 6 -8 -55
-8 -135z"/>
<path d="M9905 7850 c3 -5 8 -10 11 -10 2 0 4 5 4 10 0 6 -5 10 -11 10 -5 0
-7 -4 -4 -10z"/>
<path d="M9740 7821 c0 -11 5 -23 10 -26 6 -3 10 3 10 14 0 11 -4 23 -10 26
-5 3 -10 -3 -10 -14z"/>
<path d="M21941 7695 c48 -92 90 -157 96 -151 4 4 -26 61 -56 106 -9 14 -22
36 -29 50 -7 14 -22 36 -33 50 -12 14 -2 -11 22 -55z"/>
<path d="M10118 7638 c-1 -46 -1 -113 1 -150 2 -55 0 -69 -13 -74 -9 -3 -16
-14 -16 -23 0 -27 -12 -33 -26 -13 -10 14 -16 15 -32 6 -16 -10 -20 -8 -30 19
-14 36 -21 32 -27 -14 -2 -19 -7 -59 -12 -90 -5 -30 -6 -68 -2 -84 7 -23 38
-394 55 -642 3 -53 21 -100 47 -122 19 -15 188 -30 352 -31 109 0 135 3 160
19 34 20 261 246 276 273 13 23 -21 27 -338 36 -151 4 -266 11 -272 17 -5 6
-14 55 -20 110 -6 55 -22 201 -36 325 -14 124 -32 291 -41 373 -9 81 -18 147
-20 147 -2 0 -5 -37 -6 -82z"/>
<path d="M7373 7693 c9 -2 23 -2 30 0 6 3 -1 5 -18 5 -16 0 -22 -2 -12 -5z"/>
<path d="M17612 7680 c0 -14 2 -19 5 -12 2 6 2 18 0 25 -3 6 -5 1 -5 -13z"/>
<path d="M12344 7616 c3 -27 6 -58 6 -69 0 -16 3 -18 11 -10 13 13 5 89 -12
113 -8 11 -9 2 -5 -34z"/>
<path d="M18833 7606 c31 -30 67 -60 80 -66 14 -7 12 -3 -8 12 -16 13 -44 37
-61 53 -17 17 -40 36 -50 44 -11 7 7 -12 39 -43z"/>
<path d="M7297 7626 c-9 -14 -17 -30 -17 -36 0 -6 -19 -47 -42 -93 -41 -80
-42 -84 -42 -182 0 -80 5 -114 24 -170 33 -93 115 -261 148 -302 97 -119 160
-187 205 -220 64 -46 239 -152 292 -177 113 -52 143 -62 270 -88 127 -26 341
-30 440 -9 67 14 185 50 200 61 6 4 25 13 44 20 69 27 251 144 336 215 28 23
61 48 75 55 13 7 31 20 40 29 13 13 13 14 -5 7 -110 -42 -258 -87 -340 -102
-147 -28 -420 -26 -569 5 -376 77 -663 246 -822 488 -78 118 -167 323 -209
481 l-11 44 -17 -26z"/>
<path d="M17602 7630 c0 -14 2 -19 5 -12 2 6 2 18 0 25 -3 6 -5 1 -5 -13z"/>
<path d="M9761 7540 c-1 -52 2 -70 9 -60 12 18 12 88 0 115 -6 14 -9 -4 -9
-55z"/>
<path d="M17586 7563 c-6 -14 -5 -15 5 -6 7 7 10 15 7 18 -3 3 -9 -2 -12 -12z"/>
<path d="M21192 7560 c0 -14 2 -19 5 -12 2 6 2 18 0 25 -3 6 -5 1 -5 -13z"/>
<path d="M16730 7550 c-13 -8 -13 -10 2 -10 9 0 20 5 23 10 8 13 -5 13 -25 0z"/>
<path d="M22062 7490 c14 -25 40 -71 58 -103 18 -32 34 -56 36 -54 5 5 -91
176 -107 191 -7 6 -1 -9 13 -34z"/>
<path d="M17566 7493 c-6 -14 -5 -15 5 -6 7 7 10 15 7 18 -3 3 -9 -2 -12 -12z"/>
<path d="M21221 7413 c1 -10 5 -29 9 -43 7 -22 8 -21 9 12 1 20 -3 40 -9 43
-5 3 -10 -2 -9 -12z"/>
<path d="M8231 7404 c12 -15 61 -44 75 -44 13 0 -20 31 -47 46 -36 18 -45 18
-28 -2z"/>
<path d="M17526 7393 c-6 -14 -5 -15 5 -6 7 7 10 15 7 18 -3 3 -9 -2 -12 -12z"/>
<path d="M17495 7338 l-16 -33 20 25 c20 24 26 40 16 40 -2 0 -12 -15 -20 -32z"/>
<path d="M21246 7283 c9 -51 14 -54 14 -10 0 20 -5 39 -11 42 -7 5 -8 -5 -3
-32z"/>
<path d="M16113 7220 c3 -14 12 -56 20 -95 9 -38 19 -99 23 -135 l7 -65 11 45
c6 26 17 46 26 48 29 5 80 -112 80 -185 0 -58 37 -88 127 -101 217 -34 227
-34 279 -19 112 34 257 119 338 199 33 32 57 58 54 58 -3 0 -24 -6 -46 -14
-23 -8 -95 -20 -160 -26 -191 -19 -363 10 -512 85 -60 30 -109 74 -220 195
-30 33 -31 34 -27 10z"/>
<path d="M9707 7211 c-4 -17 -3 -21 5 -13 5 5 8 16 6 23 -3 8 -7 3 -11 -10z"/>
<path d="M17360 7165 c-24 -25 -42 -45 -39 -45 3 0 25 20 49 45 24 25 42 45
39 45 -3 0 -25 -20 -49 -45z"/>
<path d="M21261 7174 c0 -11 3 -14 6 -6 3 7 2 16 -1 19 -3 4 -6 -2 -5 -13z"/>
<path d="M9686 7154 c-4 -9 -4 -19 -1 -22 2 -3 7 3 11 12 4 9 4 19 1 22 -2 3
-7 -3 -11 -12z"/>
<path d="M15142 7125 c0 -11 4 -31 8 -45 l8 -25 0 25 c0 14 -3 34 -8 45 l-9
20 1 -20z"/>
<path d="M19929 7034 c-18 -20 -25 -31 -14 -24 18 11 61 60 52 60 -1 0 -19
-16 -38 -36z"/>
<path d="M9375 6790 c-3 -5 -1 -10 4 -10 6 0 11 5 11 10 0 6 -2 10 -4 10 -3 0
-8 -4 -11 -10z"/>
<path d="M16187 6765 c3 -22 7 -42 9 -44 8 -9 2 45 -6 64 -7 14 -8 8 -3 -20z"/>
<path d="M9340 6769 c0 -5 5 -7 10 -4 6 3 10 8 10 11 0 2 -4 4 -10 4 -5 0 -10
-5 -10 -11z"/>
<path d="M22428 6583 c7 -3 16 -2 19 1 4 3 -2 6 -13 5 -11 0 -14 -3 -6 -6z"/>
<path d="M19187 6453 c18 -2 50 -2 70 0 21 2 7 4 -32 4 -38 0 -55 -2 -38 -4z"/>
<path d="M19388 6453 c12 -2 32 -2 45 0 12 2 2 4 -23 4 -25 0 -35 -2 -22 -4z"/>
<path d="M19482 6455 c9 -9 115 -12 135 -4 10 4 -18 8 -61 8 -44 1 -77 -1 -74
-4z"/>
<path d="M19700 6450 c20 -13 107 -13 115 0 4 6 -19 10 -62 10 -48 0 -63 -3
-53 -10z"/>
<path d="M18815 6220 c-10 -11 -36 -31 -59 -44 -23 -14 -66 -51 -96 -82 -30
-31 -88 -82 -128 -113 -41 -31 -90 -69 -110 -84 -21 -15 -62 -52 -92 -81 -30
-29 -104 -93 -165 -142 -60 -49 -111 -92 -113 -96 -5 -11 -183 -132 -216 -146
-16 -7 -52 -28 -80 -46 -59 -38 -93 -56 -155 -82 -24 -10 -39 -20 -33 -22 5
-1 40 11 77 27 37 17 77 31 89 31 14 -1 37 -22 68 -63 99 -132 167 -218 273
-346 61 -74 143 -177 184 -230 169 -218 253 -321 292 -356 31 -28 40 -42 33
-52 -5 -8 -45 -29 -89 -47 -44 -18 -118 -51 -165 -73 -337 -162 -614 -246
-1049 -318 -286 -46 -434 -58 -741 -58 -194 1 -320 6 -470 22 -393 40 -641 83
-1045 185 -114 28 -337 107 -479 168 -77 33 -157 66 -176 73 -133 47 -580 267
-688 339 -37 24 -110 67 -162 96 -257 142 -459 276 -735 490 -53 41 -120 93
-148 115 -133 103 -231 185 -332 280 -60 56 -126 115 -145 130 -19 16 -114
106 -210 201 -96 95 -194 186 -217 203 -22 16 -44 35 -48 41 -8 14 -77 -24
-193 -106 -201 -143 -232 -169 -232 -199 0 -27 24 -54 190 -205 63 -58 151
-139 195 -180 106 -99 200 -180 233 -201 15 -9 54 -45 87 -79 33 -34 87 -83
120 -108 33 -25 89 -71 125 -102 130 -112 404 -311 732 -532 112 -75 310 -191
488 -285 52 -28 109 -58 125 -67 197 -105 681 -304 900 -370 28 -8 101 -31
164 -50 62 -20 121 -36 130 -36 9 0 36 -7 61 -16 88 -31 478 -112 605 -125 50
-5 128 -14 175 -19 102 -11 423 -33 465 -31 17 1 55 3 85 5 30 2 111 4 180 6
244 5 462 31 720 86 161 35 342 83 425 115 28 10 58 19 67 19 39 0 445 150
538 199 19 10 73 32 120 49 226 80 259 81 381 19 91 -47 219 -120 259 -147 14
-9 63 -37 110 -62 47 -25 109 -62 139 -82 29 -20 58 -36 65 -36 6 0 27 -13 46
-28 19 -16 60 -42 90 -59 30 -17 87 -47 125 -69 39 -21 100 -60 136 -86 36
-26 95 -60 130 -76 35 -16 70 -36 78 -45 17 -22 95 -23 144 -2 20 8 60 34 89
58 29 24 86 64 126 90 39 26 72 52 72 57 0 4 20 28 45 52 24 24 45 47 45 52 0
6 -10 20 -22 33 -15 16 -17 23 -7 23 11 0 14 25 16 128 1 70 5 188 9 264 l7
136 -32 64 c-18 34 -40 77 -49 93 -10 17 -46 80 -81 140 -96 168 -108 187
-115 186 -17 -2 -20 0 -8 7 10 7 8 14 -6 33 -11 13 -27 38 -36 54 -10 17 -30
53 -47 80 -16 28 -38 69 -49 93 -11 24 -24 40 -30 37 -5 -3 -10 -2 -10 4 0 6
-7 8 -17 4 -14 -5 -13 -8 5 -14 12 -5 22 -15 22 -24 0 -8 5 -15 10 -15 6 0 10
-9 10 -20 0 -11 6 -20 13 -20 8 0 7 -3 -3 -10 -9 -6 -17 -5 -23 3 -6 9 -7 8
-5 -2 2 -8 12 -15 22 -17 10 -1 24 -8 30 -15 8 -9 8 -10 -1 -5 -8 4 -13 1 -13
-8 0 -9 -7 -16 -15 -16 -8 0 -15 5 -15 11 0 6 -7 9 -15 5 -8 -3 -15 -2 -15 3
0 4 -9 19 -21 32 -11 13 -18 32 -15 42 3 14 0 18 -13 14 -10 -2 -18 1 -18 9 0
7 4 11 8 8 4 -2 11 0 14 6 4 6 1 9 -7 8 -7 -2 -12 5 -12 15 2 15 -1 16 -14 5
-14 -11 -15 -10 -9 7 7 19 6 19 -11 -1 l-18 -21 -16 22 c-12 16 -13 26 -5 41
10 18 9 18 -8 4 -17 -14 -18 -13 -12 3 4 11 1 17 -9 17 -8 0 -12 -4 -9 -10 3
-5 1 -10 -4 -10 -14 0 -14 17 0 25 7 5 4 14 -7 26 -19 21 -39 26 -28 7 4 -7 4
-10 -1 -6 -4 4 -17 2 -29 -4 -21 -11 -21 -11 -2 10 18 21 18 21 -14 17 -24 -3
-30 0 -26 10 3 8 0 16 -7 19 -8 3 -8 5 1 5 17 1 -11 31 -29 31 -7 0 -9 3 -5 8
4 4 13 7 19 7 7 0 13 7 15 16 2 12 -7 18 -32 23 -39 7 -53 21 -35 32 8 4 9 3
5 -4 -4 -7 -2 -12 3 -12 16 0 13 20 -4 26 -20 8 -19 44 1 44 8 0 12 -4 9 -10
-3 -6 1 -7 9 -4 11 4 14 14 10 33 -8 32 -14 40 -14 17 0 -10 -5 -14 -12 -10
-7 5 -8 3 -3 -6 6 -10 3 -12 -13 -8 -14 4 -19 2 -15 -8 4 -10 -1 -11 -26 -1
-20 7 -26 14 -18 19 6 4 15 2 19 -5 5 -8 8 -4 8 10 0 12 -5 25 -12 29 -7 5 -9
2 -4 -7 4 -8 1 -6 -7 4 -15 18 -15 18 -20 0 -4 -17 -5 -17 -6 1 -1 16 -3 17
-18 5 -14 -12 -16 -12 -8 0 6 10 4 12 -4 7 -7 -5 -10 -15 -6 -23 5 -13 3 -14
-10 -3 -10 8 -12 16 -6 19 6 4 6 12 1 21 -6 9 -4 20 3 30 10 13 10 13 -5 2 -9
-8 -14 -20 -11 -28 3 -8 0 -14 -5 -14 -6 0 -9 8 -7 18 3 19 -27 62 -44 62 -5
0 -13 4 -16 10 -3 6 1 7 9 4 9 -3 16 -2 16 4 0 15 -26 9 -47 -11 -18 -15 -20
-15 -32 4 -10 17 -10 20 1 13 7 -4 10 -4 6 1 -4 4 -2 15 5 24 10 14 10 14 -3
5 -8 -7 -28 -12 -45 -11 -16 0 -24 2 -17 4 10 4 10 8 1 19 -6 8 -15 12 -19 9
-5 -3 -12 0 -16 6 -4 8 -3 9 4 5 7 -4 12 -3 12 2 0 14 -28 23 -36 11 -3 -5 0
-17 7 -25 10 -12 9 -13 -5 -8 -12 5 -16 14 -13 30 2 13 -2 25 -9 28 -8 3 -13
2 -13 -2 3 -18 -2 -22 -15 -10 -7 7 -12 18 -9 24 2 7 -1 15 -7 19 -6 3 -9 3
-8 -2 2 -4 -1 -8 -7 -8 -5 0 -9 3 -7 8 1 4 -5 7 -13 7 -8 0 -15 5 -15 11 0 5
-4 8 -9 5 -4 -3 -19 3 -32 15 -12 11 -29 17 -36 15 -8 -3 -13 2 -13 13 0 10
-10 26 -22 35 -13 8 -16 13 -8 11 10 -4 16 1 17 15 1 11 -4 19 -10 17 -7 -1
-11 6 -10 16 0 12 -4 16 -13 13 -8 -3 -14 -1 -14 5 0 6 -4 8 -8 5 -15 -9 -31
9 -22 24 8 12 10 11 10 -5 0 -17 2 -17 10 -5 14 21 12 28 -7 33 -17 4 -17 5 0
6 10 1 17 9 17 21 0 12 -5 17 -14 14 -8 -3 -17 0 -22 7 -4 7 -3 10 3 6 6 -4
18 2 28 13 10 11 14 20 10 20 -5 0 -4 5 2 11 6 6 9 18 6 27 -4 10 -2 13 5 8 6
-3 13 -2 17 3 3 6 -3 8 -15 6 -12 -2 -20 1 -20 10 0 9 6 12 18 8 14 -5 14 -3
-3 10 -20 16 -45 12 -45 -6 0 -6 -7 -2 -15 10 -14 20 -15 72 0 106 4 10 3 17
-5 17 -6 0 -9 -4 -6 -9 3 -5 -1 -14 -9 -21 -10 -9 -15 -9 -15 -1 0 6 -4 11
-10 11 -5 0 -7 -6 -4 -14 6 -15 -29 -40 -40 -29 -8 9 -47 -28 -40 -38 3 -5 0
-9 -5 -9 -18 0 -12 18 14 44 14 14 25 23 25 21 0 -2 11 7 25 21 14 14 25 29
25 34 0 6 5 10 11 10 5 0 7 -5 3 -12 -4 -7 -3 -8 5 -4 6 4 9 11 6 15 -7 12 40
52 51 44 5 -5 6 -4 1 1 -4 6 9 27 30 48 20 21 34 40 31 43 -2 3 -13 -4 -23
-15z m-95 -261 c0 -11 -4 -19 -10 -19 -5 0 -9 5 -7 11 1 6 -4 14 -12 16 -10 4
-11 -1 -7 -18 6 -19 5 -21 -4 -7 -5 9 -7 23 -4 31 8 21 44 9 44 -14z m34 -42
c7 -6 6 -7 -4 -4 -8 2 -16 12 -17 23 -2 13 -1 15 4 4 3 -8 11 -19 17 -23z m29
-16 c-3 -9 -17 -28 -30 -42 -16 -17 -21 -29 -14 -33 6 -4 11 -15 10 -24 0 -14
-2 -14 -6 -2 -3 8 -11 18 -16 22 -7 4 -7 11 1 21 7 7 8 18 4 22 -4 5 -2 5 4 2
16 -9 37 18 37 49 0 17 2 22 7 13 5 -6 6 -19 3 -28z m-264 12 c-21 -28 -69
-73 -78 -73 -5 0 -14 -7 -21 -16 -19 -22 -51 -38 -44 -22 6 13 91 82 109 88 6
1 16 11 23 21 7 11 16 19 19 19 3 0 -1 -8 -8 -17z m115 8 c3 -5 -2 -15 -12
-22 -15 -12 -16 -12 -5 2 7 9 10 19 6 22 -3 4 -4 7 0 7 3 0 8 -4 11 -9z m100
-19 c2 -4 -4 -8 -14 -8 -10 0 -16 4 -14 8 3 4 9 8 14 8 5 0 11 -4 14 -8z
m-153 -115 c-10 -9 -11 -8 -5 6 3 10 9 15 12 12 3 -3 0 -11 -7 -18z m333 -218
c20 -12 33 -25 30 -31 -3 -5 -15 0 -26 12 -13 14 -27 19 -41 16 -12 -3 -16 -3
-9 0 6 3 10 10 6 15 -8 14 2 11 40 -12z m-894 -69 c-19 -16 -39 -29 -43 -30
-5 0 -29 -14 -53 -32 -24 -17 -46 -29 -49 -26 -3 3 18 20 47 38 29 18 69 44
88 56 47 32 51 30 10 -6z m1021 -63 c-10 -9 -11 -8 -5 6 3 10 9 15 12 12 3 -3
0 -11 -7 -18z m98 -63 c-14 -13 -16 -13 -16 0 0 8 5 12 10 9 7 -4 8 1 3 13 -6
15 -5 17 5 6 11 -10 10 -15 -2 -28z m71 16 c0 -5 -2 -10 -4 -10 -3 0 -8 5 -11
10 -3 6 -1 10 4 10 6 0 11 -4 11 -10z m-1390 -17 c-8 -3 -22 -11 -30 -17 -13
-10 -13 -9 -1 7 7 9 21 17 30 16 13 0 14 -1 1 -6z m1435 -15 c5 4 5 1 1 -6 -6
-10 -11 -10 -22 -1 -8 6 -14 14 -14 16 0 3 6 0 13 -6 8 -6 18 -7 22 -3z m206
-231 c-10 -9 -11 -8 -5 6 3 10 9 15 12 12 3 -3 0 -11 -7 -18z m149 -117 c0 -5
-8 -14 -18 -19 -14 -7 -19 -6 -19 4 0 7 6 11 14 8 7 -3 13 0 13 6 0 6 2 11 5
11 3 0 5 -4 5 -10z m84 -135 c3 -9 0 -15 -8 -15 -7 0 -13 7 -13 15 0 8 4 15 8
15 4 0 9 -7 13 -15z m206 -120 c0 -9 7 -27 16 -41 9 -13 14 -27 11 -31 -4 -3
1 -12 11 -19 16 -13 16 -13 0 -14 -10 0 -18 5 -18 11 0 5 -5 7 -12 3 -6 -4 -8
-3 -5 4 11 16 -3 41 -19 35 -10 -4 -12 0 -7 13 6 16 4 17 -8 7 -13 -10 -16
-10 -16 5 0 16 23 41 40 42 4 0 7 -7 7 -15z m80 -114 c0 -5 -7 -11 -14 -14
-10 -4 -13 -1 -9 9 6 15 23 19 23 5z"/>
<path d="M18868 6193 c7 -3 16 -2 19 1 4 3 -2 6 -13 5 -11 0 -14 -3 -6 -6z"/>
<path d="M11750 6170 c-11 -7 -3 -10 30 -10 33 0 41 3 30 10 -8 5 -22 10 -30
10 -8 0 -22 -5 -30 -10z"/>
<path d="M18835 6160 c-3 -5 -1 -10 4 -10 6 0 11 5 11 10 0 6 -2 10 -4 10 -3
0 -8 -4 -11 -10z"/>
<path d="M18796 6131 c-3 -5 2 -15 12 -22 15 -12 16 -12 5 2 -7 9 -10 19 -6
22 3 4 4 7 0 7 -3 0 -8 -4 -11 -9z"/>
<path d="M18745 6110 c-3 -5 -2 -10 4 -10 5 0 13 5 16 10 3 6 2 10 -4 10 -5 0
-13 -4 -16 -10z"/>
<path d="M18770 6095 c-8 -9 -8 -15 -2 -15 12 0 26 19 19 26 -2 2 -10 -2 -17
-11z"/>
<path d="M18771 6048 c13 -24 4 -37 -14 -18 -10 10 -9 11 2 5 10 -5 12 -4 7 4
-13 20 -24 3 -23 -34 1 -21 6 -35 14 -35 7 0 10 6 7 14 -3 8 0 17 7 22 7 4 10
3 6 -3 -4 -6 -1 -13 6 -16 10 -4 13 2 9 20 -3 17 -1 24 6 19 6 -3 13 -2 17 4
3 5 -3 10 -15 10 -12 0 -19 4 -16 9 3 5 16 7 29 4 12 -3 18 -2 14 2 -4 5 -21
10 -37 11 -27 2 -29 1 -19 -18z"/>
<path d="M19060 6021 c0 -6 5 -11 10 -11 6 0 10 -6 10 -13 0 -8 9 -22 20 -32
11 -10 20 -24 20 -32 0 -7 4 -13 10 -13 5 0 2 16 -7 35 -9 19 -20 32 -25 29
-4 -3 -8 1 -8 9 0 8 -7 20 -15 27 -10 9 -15 9 -15 1z"/>
<path d="M18800 6006 c0 -2 7 -7 16 -10 8 -3 12 -2 9 4 -6 10 -25 14 -25 6z"/>
<path d="M18807 5866 c-3 -8 -2 -18 3 -21 13 -8 20 9 11 24 -6 10 -10 9 -14
-3z"/>
<path d="M19156 5865 c4 -8 10 -12 15 -9 11 6 2 24 -11 24 -5 0 -7 -7 -4 -15z"/>
<path d="M19193 5844 c13 -4 17 -12 14 -25 -3 -10 0 -17 7 -16 6 1 10 -4 8
-11 -1 -8 2 -11 9 -6 9 5 10 2 6 -9 -3 -10 -2 -17 4 -17 6 0 7 -6 3 -12 -4 -7
-3 -10 1 -5 5 4 17 -1 28 -10 20 -18 16 -3 -6 22 -5 6 -18 28 -31 50 -12 23
-30 41 -41 42 -18 2 -18 1 -2 -3z"/>
<path d="M18800 5801 c0 -5 7 -11 14 -14 10 -4 13 -1 9 9 -6 15 -23 19 -23 5z"/>
<path d="M18839 5784 c-1 -10 -2 -29 -2 -41 -1 -13 -5 -23 -9 -23 -4 0 -8 -4
-8 -10 0 -5 6 -7 14 -4 17 6 31 -12 16 -21 -7 -4 -6 -14 2 -28 7 -12 11 -25
10 -29 -1 -3 5 -9 14 -12 10 -4 13 -2 8 6 -5 8 -2 9 9 5 10 -4 24 -10 33 -14
13 -5 15 -2 9 18 -4 13 -12 25 -16 27 -5 2 -4 12 1 23 7 13 7 19 0 19 -5 0
-10 -7 -10 -15 0 -20 -36 -39 -46 -23 -4 6 -3 8 3 5 6 -4 16 0 23 8 11 13 10
14 -6 8 -16 -6 -17 -5 -6 9 14 17 0 34 -18 23 -5 -3 -10 -2 -10 4 0 5 6 12 13
14 6 3 3 6 -8 6 -16 1 -17 3 -5 10 8 6 19 7 25 4 5 -4 1 4 -10 18 -11 13 -21
26 -22 28 -2 2 -4 -4 -4 -15z m85 -151 c4 -11 1 -11 -14 -3 -24 13 -25 17 -5
17 8 0 16 -6 19 -14z"/>
<path d="M19141 5783 c0 -11 3 -13 6 -5 2 6 10 9 15 6 7 -4 8 -2 4 4 -11 18
-26 14 -25 -5z"/>
<path d="M18797 5767 c-3 -9 1 -18 9 -21 16 -6 18 2 5 22 -7 11 -9 11 -14 -1z"/>
<path d="M19278 5703 c7 -3 16 -2 19 1 4 3 -2 6 -13 5 -11 0 -14 -3 -6 -6z"/>
<path d="M19216 5663 c-6 -14 -5 -15 5 -6 7 7 10 15 7 18 -3 3 -9 -2 -12 -12z"/>
<path d="M19233 5594 c-6 -13 -7 -24 -3 -24 9 0 25 39 18 45 -2 2 -8 -7 -15
-21z"/>
<path d="M18928 5593 c7 -3 16 -2 19 1 4 3 -2 6 -13 5 -11 0 -14 -3 -6 -6z"/>
<path d="M19030 5580 c-8 -5 -12 -12 -9 -15 4 -3 12 1 19 10 14 17 11 19 -10
5z"/>
<path d="M19070 5561 c-5 -11 -10 -24 -10 -29 0 -11 50 -35 58 -27 3 3 1 5 -4
5 -5 0 -17 7 -27 14 -15 12 -16 18 -7 35 6 12 8 21 6 21 -3 0 -10 -9 -16 -19z"/>
<path d="M19100 5566 c0 -2 8 -10 18 -17 15 -13 16 -12 3 4 -13 16 -21 21 -21
13z"/>
<path d="M19400 5526 c0 -2 7 -9 15 -16 13 -11 14 -10 9 4 -5 14 -24 23 -24
12z"/>
<path d="M19119 5484 c-12 -15 -11 -16 11 -9 23 7 24 7 10 -10 -14 -17 -14
-17 6 -5 18 11 20 16 9 27 -17 17 -20 16 -36 -3z"/>
<path d="M19335 5480 c-4 -6 -11 -7 -17 -4 -7 4 -8 2 -4 -5 6 -9 11 -9 22 0
14 11 18 19 10 19 -3 0 -8 -5 -11 -10z"/>
<path d="M19426 5481 c-3 -5 3 -11 15 -14 16 -4 18 -3 8 9 -13 16 -16 17 -23
5z"/>
<path d="M19190 5465 c5 -6 7 -15 3 -18 -3 -4 -2 -7 4 -7 10 0 39 29 32 31 -2
1 -14 3 -27 4 -16 2 -20 -1 -12 -10z"/>
<path d="M19350 5449 c0 -5 5 -7 10 -4 6 3 10 8 10 11 0 2 -4 4 -10 4 -5 0
-10 -5 -10 -11z"/>
<path d="M19408 5413 c6 -2 9 -10 6 -15 -4 -7 -2 -8 5 -4 13 9 5 26 -12 25 -9
0 -8 -2 1 -6z"/>
<path d="M19369 5393 c-8 -9 -9 -14 -2 -10 6 4 13 2 15 -5 3 -8 7 -6 11 5 9
23 -8 30 -24 10z"/>
<path d="M19476 5401 c-9 -14 25 -72 37 -64 5 3 3 9 -4 14 -11 7 -9 9 6 9 16
0 17 2 5 9 -8 6 -18 7 -24 4 -5 -3 -6 -2 -3 3 3 6 2 16 -2 23 -6 9 -11 10 -15
2z"/>
<path d="M19400 5356 c-12 -19 -12 -20 3 -8 10 9 17 10 22 2 3 -5 2 -10 -3
-10 -14 0 -10 -29 5 -34 16 -6 14 43 -2 60 -9 9 -15 6 -25 -10z"/>
<path d="M19446 5325 c4 -8 8 -15 10 -15 2 0 4 7 4 15 0 8 -4 15 -10 15 -5 0
-7 -7 -4 -15z"/>
<path d="M19510 5300 c-13 -8 -12 -10 3 -10 9 0 17 5 17 10 0 12 -1 12 -20 0z"/>
<path d="M19545 5290 c3 -5 10 -10 16 -10 5 0 9 5 9 10 0 6 -7 10 -16 10 -8 0
-12 -4 -9 -10z"/>
<path d="M19515 5270 c3 -5 8 -10 11 -10 2 0 4 5 4 10 0 6 -5 10 -11 10 -5 0
-7 -4 -4 -10z"/>
<path d="M17465 5250 c-8 -13 5 -13 25 0 13 8 13 10 -2 10 -9 0 -20 -4 -23
-10z"/>
<path d="M19594 5246 c1 -11 8 -22 14 -24 7 -2 10 -7 7 -12 -3 -5 2 -15 10
-24 9 -8 16 -18 15 -21 0 -3 2 -5 5 -5 3 0 7 0 10 0 7 0 -20 49 -44 80 -17 21
-20 22 -17 6z"/>
<path d="M19486 5193 c2 -7 -2 -13 -8 -13 -6 0 -8 -3 -5 -6 4 -4 13 -2 21 5
11 9 15 9 18 -1 3 -7 7 -3 10 10 5 18 3 20 -12 12 -10 -5 -20 -7 -23 -2 -2 4
-2 1 -1 -5z"/>
<path d="M19572 5201 c-11 -6 -10 -10 0 -19 11 -8 14 -7 14 9 0 10 0 19 -1 19
0 0 -6 -4 -13 -9z"/>
<path d="M17253 5190 c-13 -5 -23 -12 -23 -14 0 -7 61 5 80 15 21 12 -28 11
-57 -1z"/>
<path d="M19521 5155 c-1 -17 13 -32 31 -32 9 0 15 4 12 9 -3 4 -11 8 -19 8
-7 0 -16 6 -18 13 -3 6 -6 8 -6 2z"/>
<path d="M19675 5131 c-3 -6 -2 -11 4 -11 5 0 12 -13 16 -29 3 -16 13 -35 21
-42 8 -6 14 -16 14 -21 0 -5 11 -24 25 -42 14 -18 25 -38 25 -44 0 -15 17 -16
25 -1 4 5 -6 29 -22 51 -15 23 -44 66 -64 96 -21 30 -40 49 -44 43z"/>
<path d="M19517 5109 c7 -7 15 -10 18 -7 3 3 -2 9 -12 12 -14 6 -15 5 -6 -5z"/>
<path d="M19535 5070 c4 -6 11 -8 16 -5 14 9 11 15 -7 15 -8 0 -12 -5 -9 -10z"/>
<path d="M19676 4964 c-15 -39 4 -42 24 -3 8 15 7 19 -4 19 -7 0 -17 -7 -20
-16z"/>
<path d="M19795 4849 c-4 -6 -5 -12 -2 -15 2 -3 7 2 10 11 7 17 1 20 -8 4z"/>
<path d="M20287 3903 c-9 -96 -8 -181 2 -165 8 13 16 232 8 232 -2 0 -7 -30
-10 -67z"/>
<path d="M20283 3640 c0 -25 2 -35 4 -22 2 12 2 32 0 45 -2 12 -4 2 -4 -23z"/>
</g>
</svg>
